<svg width="16" height="12" viewBox="0 0 16 12" fill="none" xmlns="http://www.w3.org/2000/svg">
<path d="M11.4316 9.53494C13.0122 11.7477 15.5086 10.1135 14.9088 7.9544C14.0081 4.71183 13.518 2.90649 13.2631 1.95334C13.1131 1.39283 12.6052 1 12.0249 1H3.88393C3.30373 1 2.79807 1.39502 2.65699 1.95781C2.12633 4.07479 1.65287 5.93231 1.09117 7.9544C0.491419 10.1135 2.98783 11.7477 4.56837 9.53494" stroke="black" stroke-width="1.2" stroke-linecap="round" stroke-linejoin="round"/>
<path d="M11.7477 3.84499L11.7542 3.85082" stroke="black" stroke-width="1.2" stroke-linecap="round" stroke-linejoin="round"/>
<path d="M10.7931 2.89665L10.7996 2.90249" stroke="black" stroke-width="1.2" stroke-linecap="round" stroke-linejoin="round"/>
<path d="M10.7931 4.7933L10.7996 4.79914" stroke="black" stroke-width="1.2" stroke-linecap="round" stroke-linejoin="round"/>
<path d="M9.85107 3.84499L9.85755 3.85082" stroke="black" stroke-width="1.2" stroke-linecap="round" stroke-linejoin="round"/>
<path d="M4.79333 2.89665V4.79331" stroke="black" stroke-width="1.2" stroke-linecap="round" stroke-linejoin="round"/>
<path d="M3.84503 3.84499H5.74169" stroke="black" stroke-width="1.2" stroke-linecap="round" stroke-linejoin="round"/>
<path d="M5.42557 8.58663C6.1239 8.58663 6.69001 8.02054 6.69001 7.32219C6.69001 6.62384 6.1239 6.05775 5.42557 6.05775C4.72724 6.05775 4.16113 6.62384 4.16113 7.32219C4.16113 8.02054 4.72724 8.58663 5.42557 8.58663Z" stroke="black" stroke-width="1.2" stroke-linecap="round" stroke-linejoin="round"/>
<path d="M10.4833 8.58663C11.1817 8.58663 11.7477 8.02054 11.7477 7.32219C11.7477 6.62384 11.1817 6.05775 10.4833 6.05775C9.78496 6.05775 9.21887 6.62384 9.21887 7.32219C9.21887 8.02054 9.78496 8.58663 10.4833 8.58663Z" stroke="black" stroke-width="1.2" stroke-linecap="round" stroke-linejoin="round"/>
</svg>
