<svg width="28" height="31" viewBox="0 0 28 31" fill="none" xmlns="http://www.w3.org/2000/svg">
<rect width="28" height="31" rx="7" fill="#182845"/>
<path d="M12.7045 27H4.03409L5.96591 3.72727H14.5C16.8636 3.72727 18.8674 4.20076 20.5114 5.14773C22.1629 6.08712 23.3864 7.43939 24.1818 9.20454C24.9773 10.9621 25.2727 13.0606 25.0682 15.5C24.8712 17.9015 24.2424 19.9621 23.1818 21.6818C22.1212 23.4015 20.7008 24.7197 18.9205 25.6364C17.1402 26.5455 15.0682 27 12.7045 27ZM10.0568 22.2045H12.7614C14.072 22.2045 15.2008 21.9773 16.1477 21.5227C17.1023 21.0606 17.8598 20.3182 18.4205 19.2955C18.9886 18.2652 19.3447 16.9015 19.4886 15.2045C19.625 13.553 19.5 12.2424 19.1136 11.2727C18.7348 10.2955 18.1098 9.5947 17.2386 9.17045C16.3674 8.73864 15.2652 8.52273 13.9318 8.52273H11.1932L10.0568 22.2045Z" fill="white"/>
</svg>
