<svg width="189" height="25" viewBox="0 0 189 25" fill="none" xmlns="http://www.w3.org/2000/svg">
<path d="M8.70455 24H0.034091L1.96591 0.727272H10.5C12.8636 0.727272 14.8674 1.20076 16.5114 2.14773C18.1629 3.08712 19.3864 4.43939 20.1818 6.20454C20.9773 7.96212 21.2727 10.0606 21.0682 12.5C20.8712 14.9015 20.2424 16.9621 19.1818 18.6818C18.1212 20.4015 16.7008 21.7197 14.9205 22.6364C13.1402 23.5455 11.0682 24 8.70455 24ZM6.05682 19.2045H8.76136C10.072 19.2045 11.2008 18.9773 12.1477 18.5227C13.1023 18.0606 13.8598 17.3182 14.4205 16.2955C14.9886 15.2652 15.3447 13.9015 15.4886 12.2045C15.625 10.553 15.5 9.24242 15.1136 8.27273C14.7348 7.29545 14.1098 6.5947 13.2386 6.17045C12.3674 5.73864 11.2652 5.52273 9.93182 5.52273H7.19318L6.05682 19.2045ZM25.1482 24H19.1027L28.8868 0.727272H36.3755L42.2959 24H36.2505L32.2391 6.59091H32.0573L25.1482 24ZM25.1141 14.8409H37.7505L37.3755 19.1136H24.7391L25.1141 14.8409ZM56.0833 7.72727C56.0757 6.88636 55.7954 6.23106 55.2424 5.76136C54.6894 5.29167 53.8636 5.05682 52.7651 5.05682C52.0378 5.05682 51.4242 5.15151 50.9242 5.34091C50.4242 5.5303 50.0378 5.79167 49.7651 6.125C49.5 6.45076 49.3484 6.82576 49.3106 7.25C49.2651 7.59091 49.3068 7.89773 49.4356 8.17045C49.5719 8.43561 49.7803 8.67045 50.0606 8.875C50.3484 9.07197 50.6969 9.24621 51.106 9.39773C51.5227 9.54924 51.9886 9.68182 52.5037 9.79545L54.4583 10.25C55.5871 10.5 56.5757 10.8333 57.4242 11.25C58.2727 11.6591 58.9734 12.1553 59.5265 12.7386C60.0871 13.3144 60.4924 13.9773 60.7424 14.7273C60.9924 15.4773 61.0795 16.3182 61.0037 17.25C60.875 18.7197 60.3977 19.9811 59.5719 21.0341C58.7538 22.0871 57.6325 22.8939 56.2083 23.4545C54.7916 24.0152 53.1136 24.2955 51.1742 24.2955C49.2272 24.2955 47.553 24.0038 46.1515 23.4205C44.7575 22.8295 43.7083 21.9394 43.0037 20.75C42.2992 19.5606 42.0113 18.0606 42.1401 16.25H47.5151C47.5 17 47.6515 17.625 47.9697 18.125C48.2878 18.625 48.7462 19.0038 49.3447 19.2614C49.9507 19.5189 50.6666 19.6477 51.4924 19.6477C52.25 19.6477 52.9053 19.5455 53.4583 19.3409C54.0113 19.1364 54.4431 18.8523 54.7537 18.4886C55.0719 18.125 55.2538 17.7083 55.2992 17.2386C55.3295 16.7992 55.2234 16.4242 54.981 16.1136C54.7462 15.7955 54.3636 15.5189 53.8333 15.2841C53.303 15.0492 52.6174 14.8371 51.7765 14.6477L49.4015 14.0795C47.4318 13.6174 45.9091 12.8712 44.8333 11.8409C43.7651 10.803 43.303 9.40151 43.4469 7.63636C43.5606 6.18939 44.053 4.92424 44.9242 3.84091C45.7954 2.75757 46.9431 1.91667 48.3674 1.31818C49.7916 0.712121 51.3901 0.40909 53.1628 0.40909C54.9659 0.40909 56.5075 0.715908 57.7878 1.32954C59.0681 1.93561 60.0303 2.78788 60.6742 3.88636C61.3181 4.98485 61.5833 6.26515 61.4697 7.72727H56.0833ZM61.3678 24L63.2997 0.727272H68.9247L68.1519 10.0682H77.3224L78.0951 0.727272H83.7088L81.7769 24H76.1633L76.936 14.6477H67.7656L66.9928 24H61.3678ZM83.3853 24L85.3172 0.727272H95.0217C96.7641 0.727272 98.2035 0.973484 99.3399 1.46591C100.476 1.95833 101.306 2.64773 101.829 3.53409C102.351 4.42045 102.563 5.44697 102.465 6.61364C102.389 7.5 102.135 8.29167 101.704 8.98864C101.279 9.67803 100.719 10.25 100.022 10.7045C99.3323 11.1591 98.5558 11.4773 97.6922 11.6591L97.6694 11.8864C98.6088 11.9242 99.4573 12.178 100.215 12.6477C100.98 13.1098 101.571 13.7538 101.988 14.5795C102.404 15.3977 102.567 16.3674 102.476 17.4886C102.37 18.7386 101.957 19.8561 101.238 20.8409C100.525 21.8182 99.5406 22.5909 98.2831 23.1591C97.0331 23.7197 95.5482 24 93.8285 24H83.3853ZM89.3967 19.4659H92.874C94.0861 19.4659 95.0028 19.2348 95.624 18.7727C96.2452 18.3106 96.5861 17.6667 96.6467 16.8409C96.6922 16.2424 96.5937 15.7273 96.3512 15.2955C96.1088 14.8561 95.7376 14.5189 95.2376 14.2841C94.7452 14.0417 94.1391 13.9205 93.4194 13.9205H89.8399L89.3967 19.4659ZM90.1467 10.2955H93.2717C93.8778 10.2955 94.427 10.1932 94.9194 9.98864C95.4194 9.78409 95.8209 9.48864 96.124 9.10227C96.427 8.71591 96.6013 8.25 96.6467 7.70454C96.7073 6.92424 96.4763 6.31061 95.9535 5.86364C95.4384 5.41667 94.7149 5.19318 93.7831 5.19318H90.5672L90.1467 10.2955ZM125.613 12.5455C125.409 15.0833 124.749 17.2273 123.636 18.9773C122.522 20.7273 121.102 22.0568 119.374 22.9659C117.655 23.8674 115.768 24.3182 113.715 24.3182C111.594 24.3182 109.723 23.8485 108.102 22.9091C106.48 21.9621 105.246 20.5909 104.397 18.7955C103.556 16.9924 103.242 14.7992 103.454 12.2159C103.659 9.67803 104.314 7.53409 105.42 5.78409C106.534 4.02651 107.954 2.69318 109.681 1.78409C111.416 0.867423 113.318 0.40909 115.386 0.40909C117.492 0.40909 119.355 0.882575 120.977 1.82954C122.598 2.76894 123.829 4.14394 124.67 5.95454C125.518 7.75757 125.833 9.95454 125.613 12.5455ZM119.931 12.2159C120.052 10.7235 119.946 9.46591 119.613 8.44318C119.28 7.42045 118.746 6.64773 118.011 6.125C117.284 5.60227 116.374 5.34091 115.284 5.34091C114.132 5.34091 113.117 5.62121 112.238 6.18182C111.367 6.74242 110.662 7.56061 110.124 8.63636C109.594 9.70455 109.268 11.0076 109.147 12.5455C109.018 14.0455 109.121 15.303 109.454 16.3182C109.795 17.3333 110.333 18.0985 111.068 18.6136C111.81 19.1288 112.727 19.3864 113.818 19.3864C114.962 19.3864 115.965 19.1098 116.829 18.5568C117.7 18.0038 118.401 17.1932 118.931 16.125C119.469 15.0568 119.802 13.7538 119.931 12.2159ZM129.704 24H123.659L133.443 0.727272H140.932L146.852 24H140.807L136.795 6.59091H136.614L129.704 24ZM129.67 14.8409H142.307L141.932 19.1136H129.295L129.67 14.8409ZM147.438 24L149.37 0.727272H158.983C160.726 0.727272 162.207 1.04167 163.426 1.67045C164.646 2.29167 165.551 3.18561 166.142 4.35227C166.733 5.51136 166.961 6.88636 166.824 8.47727C166.695 10.0909 166.233 11.4621 165.438 12.5909C164.642 13.7121 163.57 14.5682 162.222 15.1591C160.873 15.7424 159.313 16.0341 157.54 16.0341H151.461L151.836 11.6023H156.87C157.711 11.6023 158.426 11.4924 159.017 11.2727C159.616 11.0455 160.082 10.7045 160.415 10.25C160.748 9.78788 160.942 9.19697 160.995 8.47727C161.055 7.75757 160.957 7.16288 160.699 6.69318C160.442 6.21591 160.036 5.85985 159.483 5.625C158.93 5.38258 158.233 5.26136 157.392 5.26136H154.62L153.063 24H147.438ZM161.426 13.3636L166.336 24H160.199L155.404 13.3636H161.426ZM175.501 24H166.83L168.762 0.727272H177.296C179.66 0.727272 181.664 1.20076 183.308 2.14773C184.959 3.08712 186.183 4.43939 186.978 6.20454C187.774 7.96212 188.069 10.0606 187.864 12.5C187.667 14.9015 187.039 16.9621 185.978 18.6818C184.917 20.4015 183.497 21.7197 181.717 22.6364C179.936 23.5455 177.864 24 175.501 24ZM172.853 19.2045H175.558C176.868 19.2045 177.997 18.9773 178.944 18.5227C179.899 18.0606 180.656 17.3182 181.217 16.2955C181.785 15.2652 182.141 13.9015 182.285 12.2045C182.421 10.553 182.296 9.24242 181.91 8.27273C181.531 7.29545 180.906 6.5947 180.035 6.17045C179.164 5.73864 178.061 5.52273 176.728 5.52273H173.989L172.853 19.2045Z" fill="white"/>
</svg>
