<svg width="143" height="28" viewBox="0 0 143 28" fill="none" xmlns="http://www.w3.org/2000/svg">
<path d="M13.1749 10.7046L12.4868 10.7L8.87306 13.9277L1.12021 21.0392C0.578036 21.5371 0.202523 22.1489 0 22.8071V25.1804C0.16877 25.7289 0.459897 26.25 0.875492 26.7015C2.37121 28.3322 4.90486 28.4419 6.5356 26.9462L16.6597 17.6617C17.147 17.2145 17.4972 16.6765 17.7103 16.0964L17.7208 16.0669C18.2081 14.7104 17.9444 13.1366 16.9023 11.9995C16.1112 11.1388 15.031 10.7021 13.9488 10.7021C13.9319 10.7021 13.9129 10.7021 13.8961 10.7021" fill="#182845"/>
<path d="M1.92608 0C1.75309 0 1.59276 0.0126577 1.4472 0.0379731C1.43665 0.0379731 1.42399 0.0421924 1.41344 0.044302C0.594913 0.194085 0.194085 0.702503 0 1.17506V22.8366C0.38606 21.592 1.24046 20.9232 1.24046 20.9232C1.24046 20.9232 15.6365 7.88576 16.2736 7.24865C17.5752 5.94702 18.4465 4.35214 17.6638 2.30581C16.7926 0.0295349 14.4425 0 14.4425 0H1.92608Z" fill="#51C0BE"/>
<path d="M32.742 11.8672C32.742 10.8782 32.0451 10.1224 31.0946 10.1224H29.0604V13.6119H31.0946C32.0451 13.6119 32.742 12.8561 32.742 11.8672ZM35.842 11.8672C35.842 14.4445 33.7694 16.5197 31.0946 16.5197H29.0604V20.7828H25.9604V7.21717H31.0972C33.7719 7.21717 35.8446 9.28981 35.8446 11.8672" fill="#182845"/>
<path d="M43.051 15.7434L41.4626 10.7629L39.8741 15.7434H43.051ZM43.981 18.6513H38.9416L38.2627 20.7828H34.8706L39.4822 7.21717H43.4353L48.0469 20.7828H44.6548L43.9759 18.6513H43.981Z" fill="#182845"/>
<path d="M53.9603 15.5667V20.7803H50.8603V15.5667L46.3051 7.2146H49.833L52.4103 12.4487L54.9877 7.2146H58.5155L53.9603 15.5667Z" fill="#182845"/>
<path d="M66.6549 16.5761C66.6549 15.8203 66.1502 15.2771 65.3765 15.2771H62.7786V17.875H65.3765C66.1527 17.875 66.6549 17.3319 66.6549 16.5761ZM62.7786 10.1224V12.5256H64.987C65.6839 12.5256 66.1681 12.0209 66.1681 11.324C66.1681 10.6272 65.7018 10.1224 64.987 10.1224H62.7786ZM69.7549 16.8092C69.7549 19.2123 67.7975 20.7828 65.3739 20.7828H59.6761V7.21717H64.987C67.3518 7.21717 69.2707 8.74923 69.2707 11.0934C69.2707 12.2181 68.8249 13.1097 68.0896 13.7476C69.0965 14.3881 69.7575 15.4334 69.7575 16.8092" fill="#182845"/>
<path d="M74.4052 13.6119H76.7314C77.5846 13.6119 78.2814 12.8561 78.2814 11.8672C78.2814 10.8782 77.5846 10.1225 76.7314 10.1225H74.4052V13.6119ZM75.8783 16.325H74.4052V20.7828H71.3052V7.21717H76.7314C79.3088 7.21717 81.3814 9.28981 81.3814 11.8697C81.3814 13.5376 80.3746 15.0466 78.8809 15.8024L81.7683 20.7828H78.4352L75.8783 16.325Z" fill="#182845"/>
<path d="M93.4536 13.9987C93.4536 11.5751 91.7089 9.96873 89.5005 9.96873C87.2921 9.96873 85.5474 11.5777 85.5474 13.9987C85.5474 16.4198 87.2921 18.0287 89.5005 18.0287C91.7089 18.0287 93.4536 16.4198 93.4536 13.9987ZM82.4448 13.9987C82.4448 10.0072 85.6037 6.9456 89.4979 6.9456C93.3922 6.9456 96.5511 10.0072 96.5511 13.9987C96.5511 17.9903 93.3922 21.0544 89.4979 21.0544C85.6037 21.0544 82.4448 17.9928 82.4448 13.9987Z" fill="#182845"/>
<path d="M105.738 20.7803L101.398 14.5009V20.7803H98.2983V7.21461H101.398V13.1072L105.546 7.21461H109.074L104.498 13.8245L109.266 20.7803H105.738Z" fill="#182845"/>
<path d="M118.955 17.7956V20.7803H110.429V7.21461H118.858V10.1993H113.529V12.4487H118.374V15.3924H113.529V17.7956H118.955Z" fill="#182845"/>
<path d="M123.8 13.6119H126.126C126.979 13.6119 127.676 12.8561 127.676 11.8672C127.676 10.8782 126.979 10.1224 126.126 10.1224H123.8V13.6119ZM123.8 16.325V20.7828H120.7V7.21717H126.126C128.703 7.21717 130.779 9.28981 130.779 11.8697C130.779 13.5376 129.772 15.0466 128.278 15.8024L131.165 20.7828H127.832L125.275 16.325H123.8Z" fill="#182845"/>
<path d="M131.744 17.7008L134.419 16.1508C134.903 17.2755 135.736 18.0313 137.268 18.0313C138.8 18.0313 139.11 17.4497 139.11 16.9271C139.11 16.0944 138.334 15.7639 136.3 15.2028C134.283 14.6418 132.308 13.6733 132.308 11.0755C132.308 8.47766 134.517 6.94816 136.863 6.94816C139.21 6.94816 140.837 8.01394 141.823 10.0097L139.208 11.5392C138.741 10.5708 138.103 9.96873 136.863 9.96873C135.895 9.96873 135.411 10.4529 135.411 10.9961C135.411 11.6161 135.741 12.0414 137.852 12.6819C139.907 13.3019 142.213 14.0192 142.213 16.8886C142.213 19.5044 140.12 21.0544 137.173 21.0544C134.227 21.0544 132.503 19.6991 131.747 17.7008" fill="#182845"/>
</svg>
